<?xml version="1.0" encoding="UTF-8"?>
<svg id="Layer_1" data-name="Layer 1" xmlns="http://www.w3.org/2000/svg" viewBox="0 0 797.37 240.18">
  <defs>
    <style>
      .cls-1 {
        fill: #dd7e27;
      }

      .cls-2 {
        fill: #231f20;
      }

      .cls-3 {
        fill: #f067a6;
      }

      .cls-4 {
        fill: #fff;
      }

      .cls-5 {
        fill: #76c043;
      }
    </style>
  </defs>
  <path class="cls-5" d="M178.22,9.21c5.98-3.29,12.99-2.91,18.44.39-.13,6.37-3.56,12.49-9.55,15.78s-13,2.92-18.45-.39c.14-6.37,3.58-12.49,9.56-15.78Z"/>
  <path class="cls-1" d="M167.43,37.9c-3.08,3.87-4.77,5.8-5.02,8.31-.27,2.66,1.18,4.6,4.33,7.46,1.24,1.02,1.96,2.74,1.79,4.51-.3,2.96-2.92,5.24-6.03,4.92-1.04-.1-2.04-.51-2.87-1.19-6.91-5.63-10.17-10.29-9.51-16.8.33-3.25,1.46-5.53,5.4-10.52,3.08-3.87,4.77-5.8,5.02-8.31.27-2.66-1.18-4.6-4.33-7.46-1.24-1.02-1.97-2.74-1.79-4.51.3-2.96,2.92-5.24,6.03-4.92,1.04.1,2.04.51,2.87,1.19,6.91,5.63,10.17,10.29,9.51,16.8-.33,3.25-1.45,5.53-5.4,10.52Z"/>
  <g>
    <path class="cls-2" d="M30.23,165.11l-11.46-108.46c-.19-1.91-.19-2.29-.19-2.86,0-5.92,3.82-10.69,10.12-10.69,5.16,0,9.17,2.48,9.74,9.36l8.97,95.66h.38l9.17-93.56c.76-7.07,5.73-11.46,12.41-11.46s11.65,4.39,12.41,11.46l9.17,93.56h.38l8.97-96.62c.38-4.2,3.44-8.4,8.97-8.4,5.92,0,8.97,4.58,8.97,8.97l-.19,2.67-11.65,111.13c-.95,8.59-5.54,13.17-14.13,13.17s-13.37-4.58-14.32-13.17l-8.59-80.01h-.38l-8.4,79.24c-.95,9.17-6.11,13.94-15.28,13.94s-14.13-4.58-15.08-13.94Z"/>
    <path class="cls-5" d="M127.8,146.2v-70.27c0-21.39,11.27-33.61,31.89-33.61s31.89,12.22,31.89,33.61v70.27c0,21.39-11.27,33.61-31.89,33.61s-31.89-12.22-31.89-33.61ZM170.57,147.54v-72.94c0-9.55-4.2-13.18-10.88-13.18s-10.88,3.63-10.88,13.18v72.94c0,9.55,4.2,13.17,10.88,13.17s10.88-3.63,10.88-13.17Z"/>
    <path class="cls-2" d="M205.7,168.54V54.74c0-6.68,3.82-10.5,10.5-10.5h20.62c21.77,0,31.12,10.12,31.12,30.74v8.21c0,13.75-4.39,22.53-13.75,26.35v.38c10.5,3.25,13.94,13.18,13.94,28.26v20.81c0,3.63.19,5.54.76,7.83.57,2.1.76,3.25.76,5.16,0,4.58-3.63,7.06-9.93,7.06-8.59,0-12.6-4.39-12.6-16.42v-25.59c0-12.41-3.63-16.42-13.18-16.42h-7.26v47.93c0,6.68-3.82,10.5-10.5,10.5s-10.5-3.82-10.5-10.5ZM234.35,101.52c7.83,0,12.6-3.44,12.6-14.13v-10.31c0-9.55-3.25-13.75-10.69-13.75h-9.55v38.19h7.64Z"/>
    <path class="cls-2" d="M282.65,169.88V59.89c0-10.31,5.35-16.8,15.08-16.8s15.47,4.96,16.8,14.7l11.46,82.49h.38l11.65-82.87c1.34-9.36,6.49-14.32,16.04-14.32s15.66,6.49,15.66,16.42v109.6c0,6.3-3.63,9.93-9.93,9.93s-9.93-3.63-9.93-9.93v-93.56h-.38l-14.13,94.14c-.76,5.73-4.2,8.97-9.93,8.97s-9.17-3.25-9.93-8.97l-14.13-94.14h-.38v94.33c0,5.92-3.25,9.17-9.17,9.17s-9.17-3.25-9.17-9.17Z"/>
    <path class="cls-2" d="M392.64,165.11l-11.46-108.46c-.19-1.91-.19-2.29-.19-2.86,0-5.92,3.82-10.69,10.12-10.69,5.16,0,9.17,2.48,9.74,9.36l8.97,95.66h.38l9.17-93.56c.76-7.07,5.73-11.46,12.41-11.46s11.65,4.39,12.41,11.46l9.17,93.56h.38l8.97-96.62c.38-4.2,3.44-8.4,8.97-8.4,5.92,0,8.97,4.58,8.97,8.97l-.19,2.67-11.65,111.13c-.96,8.59-5.54,13.17-14.13,13.17s-13.37-4.58-14.32-13.17l-8.59-80.01h-.38l-8.4,79.24c-.95,9.17-6.11,13.94-15.28,13.94s-14.13-4.58-15.09-13.94Z"/>
    <path class="cls-2" d="M490.21,146.2v-70.27c0-21.39,11.27-33.61,31.89-33.61s31.89,12.22,31.89,33.61v70.27c0,21.39-11.27,33.61-31.89,33.61s-31.89-12.22-31.89-33.61ZM532.98,147.54v-72.94c0-9.55-4.2-13.18-10.88-13.18s-10.88,3.63-10.88,13.18v72.94c0,9.55,4.2,13.17,10.88,13.17s10.88-3.63,10.88-13.17Z"/>
    <path class="cls-2" d="M568.11,168.54V54.74c0-6.68,3.82-10.5,10.5-10.5h20.62c21.77,0,31.12,10.12,31.12,30.74v8.21c0,13.75-4.39,22.53-13.75,26.35v.38c10.5,3.25,13.94,13.18,13.94,28.26v20.81c0,3.63.19,5.54.76,7.83.57,2.1.76,3.25.76,5.16,0,4.58-3.63,7.06-9.93,7.06-8.59,0-12.6-4.39-12.6-16.42v-25.59c0-12.41-3.63-16.42-13.18-16.42h-7.26v47.93c0,6.68-3.82,10.5-10.5,10.5s-10.5-3.82-10.5-10.5ZM596.75,101.52c7.83,0,12.6-3.44,12.6-14.13v-10.31c0-9.55-3.25-13.75-10.69-13.75h-9.55v38.19h7.64Z"/>
    <path class="cls-2" d="M645.06,167.4V54.74c0-6.11,4.39-10.5,10.5-10.5h21.58c21,0,31.32,11.65,31.32,33.03v67.6c0,21.39-10.31,33.03-31.32,33.03h-21.58c-6.11,0-10.5-4.39-10.5-10.5ZM676.76,158.81c6.68,0,10.69-3.44,10.69-12.98v-69.5c0-9.55-4.01-12.98-10.69-12.98h-10.69v95.47h10.69Z"/>
    <path class="cls-2" d="M718.96,147.35c0-6.11,3.63-10.12,9.93-10.12,5.54,0,9.93,2.86,9.93,10.5,0,9.55,4.2,12.98,10.88,12.98s10.88-3.44,10.88-13.37c0-11.08-4.2-18.14-17.95-30.17-17.57-15.47-23.3-26.35-23.3-41.63,0-21,10.88-33.22,31.32-33.22s30.55,13.18,30.55,30.36c0,6.68-3.63,10.12-9.93,10.12-6.68,0-9.93-4.39-9.93-10.12,0-7.07-3.82-11.27-10.5-11.27s-10.5,3.63-10.5,12.79c0,9.74,4.39,16.8,18.14,28.83,17.57,15.47,23.1,26.16,23.1,42.77,0,21.77-11.08,33.99-31.7,33.99s-30.93-12.22-30.93-32.46Z"/>
  </g>
  <rect class="cls-3" x="568.24" y="13" width="21" height="199.34" rx="10.5" ry="10.5"/>
  <rect class="cls-3" x="424.52" y="-130.72" width="21" height="308.43" rx="10.5" ry="10.5" transform="translate(458.52 -411.52) rotate(90)"/>
  <rect class="cls-3" x="627.98" y="131.6" width="21" height="140.48" rx="10.5" ry="10.5" transform="translate(840.32 -436.63) rotate(90)"/>
  <path class="cls-3" d="M559.97,34c4.57,0,8.27,3.7,8.27,8.27v-8.27h-8.27Z"/>
  <path class="cls-3" d="M597.51,191.34c-4.57,0-8.27-3.7-8.27-8.27v8.27h8.27Z"/>
  <circle class="cls-3" cx="285.71" cy="20.69" r="6.46"/>
  <circle class="cls-4" cx="285.71" cy="20.69" r="5.47"/>
  <circle class="cls-4" cx="297.64" cy="20.69" r="5.47"/>
  <circle class="cls-2" cx="285.71" cy="20.69" r="2.52"/>
  <circle class="cls-2" cx="297.64" cy="20.69" r="2.52"/>
  <rect class="cls-5" x="138.15" y="54.73" width="40.96" height="109.37"/>
  <g>
    <path class="cls-2" d="M85.64,222.88v-23.44c0-1.25.9-2.14,2.14-2.14s2.14.9,2.14,2.14v9.19h4.6v-9.19c0-1.25.9-2.14,2.14-2.14s2.14.9,2.14,2.14v23.44c0,1.25-.9,2.14-2.14,2.14s-2.14-.9-2.14-2.14v-10.36h-4.6v10.36c0,1.25-.9,2.14-2.14,2.14s-2.14-.9-2.14-2.14Z"/>
    <path class="cls-2" d="M101.69,218.33v-14.33c0-4.36,2.3-6.85,6.5-6.85s6.5,2.49,6.5,6.85v14.33c0,4.36-2.3,6.85-6.5,6.85s-6.5-2.49-6.5-6.85ZM110.41,218.6v-14.88c0-1.95-.86-2.69-2.22-2.69s-2.22.74-2.22,2.69v14.88c0,1.95.86,2.69,2.22,2.69s2.22-.74,2.22-2.69Z"/>
    <path class="cls-2" d="M119.06,222.18l-2.34-22.12c-.04-.39-.04-.47-.04-.58,0-1.21.78-2.18,2.06-2.18,1.05,0,1.87.51,1.99,1.91l1.83,19.51h.08l1.87-19.08c.16-1.44,1.17-2.34,2.53-2.34s2.38.9,2.53,2.34l1.87,19.08h.08l1.83-19.7c.08-.86.7-1.71,1.83-1.71,1.21,0,1.83.93,1.83,1.83l-.04.55-2.38,22.66c-.19,1.75-1.13,2.69-2.88,2.69s-2.73-.93-2.92-2.69l-1.75-16.32h-.08l-1.71,16.16c-.19,1.87-1.25,2.84-3.12,2.84s-2.88-.93-3.08-2.84Z"/>
    <path class="cls-2" d="M145.5,223.16v-22.43c0-2.1,1.09-3.43,3.08-3.43s3.15,1.01,3.43,3l2.34,16.82h.08l2.38-16.9c.27-1.91,1.32-2.92,3.27-2.92s3.19,1.32,3.19,3.35v22.35c0,1.29-.74,2.02-2.02,2.02s-2.02-.74-2.02-2.02v-19.08h-.08l-2.88,19.2c-.16,1.17-.86,1.83-2.02,1.83s-1.87-.66-2.02-1.83l-2.88-19.2h-.08v19.24c0,1.21-.66,1.87-1.87,1.87s-1.87-.66-1.87-1.87Z"/>
    <path class="cls-2" d="M165.56,222.92c0-.23.04-.47.08-.7l3.7-22.16c.31-1.79,1.56-2.92,3.35-2.92s3,1.13,3.31,2.92l3.7,22.16c.04.23.04.43.04.62,0,1.32-.7,2.18-1.95,2.18s-2.02-.82-2.22-2.06l-.51-3.58v.08h-5.1l-.51,3.58c-.19,1.36-.93,1.99-2.03,1.99-1.01,0-1.87-.66-1.87-2.1ZM174.55,215.76l-2.02-13.86h-.08l-1.99,13.86h4.09Z"/>
    <path class="cls-2" d="M182.07,223.12v-22.66c0-1.95,1.09-3.15,2.8-3.15,1.83,0,2.73,1.09,3.19,2.84l3.54,13.79h.08v-14.72c0-1.21.7-1.91,1.91-1.91s1.91.7,1.91,1.91v23.33c0,1.87-.93,2.49-2.26,2.49-1.48,0-2.22-.74-2.69-2.53l-4.59-17.68h-.08v18.3c0,1.21-.7,1.91-1.91,1.91s-1.91-.7-1.91-1.91Z"/>
    <path class="cls-2" d="M202.63,222.88v-9.7l-4.24-12.62c-.16-.43-.19-.82-.19-1.21,0-1.21.74-2.06,1.95-2.06,1.36,0,1.83.62,2.3,2.14l2.49,8.1h.08l2.49-8.25c.43-1.4.97-1.99,2.18-1.99,1.13,0,1.79.78,1.79,1.91,0,.31-.08.7-.19,1.09l-4.36,12.89v9.7c0,1.25-.9,2.14-2.14,2.14s-2.14-.9-2.14-2.14Z"/>
    <path class="cls-2" d="M221.75,222.18l-2.34-22.12c-.04-.39-.04-.47-.04-.58,0-1.21.78-2.18,2.06-2.18,1.05,0,1.87.51,1.99,1.91l1.83,19.51h.08l1.87-19.08c.16-1.44,1.17-2.34,2.53-2.34s2.38.9,2.53,2.34l1.87,19.08h.08l1.83-19.7c.08-.86.7-1.71,1.83-1.71,1.21,0,1.83.93,1.83,1.83l-.04.55-2.38,22.66c-.19,1.75-1.13,2.69-2.88,2.69s-2.73-.93-2.92-2.69l-1.75-16.32h-.08l-1.71,16.16c-.19,1.87-1.25,2.84-3.12,2.84s-2.88-.93-3.08-2.84Z"/>
    <path class="cls-2" d="M241.65,218.33v-14.33c0-4.36,2.3-6.85,6.5-6.85s6.5,2.49,6.5,6.85v14.33c0,4.36-2.3,6.85-6.5,6.85s-6.5-2.49-6.5-6.85ZM250.38,218.6v-14.88c0-1.95-.86-2.69-2.22-2.69s-2.22.74-2.22,2.69v14.88c0,1.95.86,2.69,2.22,2.69s2.22-.74,2.22-2.69Z"/>
    <path class="cls-2" d="M257.54,222.88v-23.21c0-1.36.78-2.14,2.14-2.14h4.21c4.44,0,6.35,2.06,6.35,6.27v1.67c0,2.8-.9,4.59-2.8,5.37v.08c2.14.66,2.84,2.69,2.84,5.76v4.24c0,.74.04,1.13.16,1.6.12.43.16.66.16,1.05,0,.93-.74,1.44-2.03,1.44-1.75,0-2.57-.9-2.57-3.35v-5.22c0-2.53-.74-3.35-2.69-3.35h-1.48v9.77c0,1.36-.78,2.14-2.14,2.14s-2.14-.78-2.14-2.14ZM263.38,209.21c1.6,0,2.57-.7,2.57-2.88v-2.1c0-1.95-.66-2.8-2.18-2.8h-1.95v7.79h1.56Z"/>
    <path class="cls-2" d="M273.24,223.16v-22.43c0-2.1,1.09-3.43,3.08-3.43s3.15,1.01,3.43,3l2.34,16.82h.08l2.38-16.9c.27-1.91,1.32-2.92,3.27-2.92s3.19,1.32,3.19,3.35v22.35c0,1.29-.74,2.02-2.03,2.02s-2.02-.74-2.02-2.02v-19.08h-.08l-2.88,19.2c-.16,1.17-.86,1.83-2.02,1.83s-1.87-.66-2.03-1.83l-2.88-19.2h-.08v19.24c0,1.21-.66,1.87-1.87,1.87s-1.87-.66-1.87-1.87Z"/>
    <path class="cls-2" d="M295.67,222.18l-2.34-22.12c-.04-.39-.04-.47-.04-.58,0-1.21.78-2.18,2.06-2.18,1.05,0,1.87.51,1.99,1.91l1.83,19.51h.08l1.87-19.08c.16-1.44,1.17-2.34,2.53-2.34s2.38.9,2.53,2.34l1.87,19.08h.08l1.83-19.7c.08-.86.7-1.71,1.83-1.71,1.21,0,1.83.93,1.83,1.83l-.04.55-2.38,22.66c-.19,1.75-1.13,2.69-2.88,2.69s-2.73-.93-2.92-2.69l-1.75-16.32h-.08l-1.71,16.16c-.19,1.87-1.25,2.84-3.12,2.84s-2.88-.93-3.08-2.84Z"/>
    <path class="cls-2" d="M315.57,218.33v-14.33c0-4.36,2.3-6.85,6.5-6.85s6.5,2.49,6.5,6.85v14.33c0,4.36-2.3,6.85-6.5,6.85s-6.5-2.49-6.5-6.85ZM324.29,218.6v-14.88c0-1.95-.86-2.69-2.22-2.69s-2.22.74-2.22,2.69v14.88c0,1.95.86,2.69,2.22,2.69s2.22-.74,2.22-2.69Z"/>
    <path class="cls-2" d="M331.46,222.88v-23.21c0-1.36.78-2.14,2.14-2.14h4.21c4.44,0,6.35,2.06,6.35,6.27v1.67c0,2.8-.9,4.59-2.8,5.37v.08c2.14.66,2.84,2.69,2.84,5.76v4.24c0,.74.04,1.13.16,1.6.12.43.16.66.16,1.05,0,.93-.74,1.44-2.02,1.44-1.75,0-2.57-.9-2.57-3.35v-5.22c0-2.53-.74-3.35-2.69-3.35h-1.48v9.77c0,1.36-.78,2.14-2.14,2.14s-2.14-.78-2.14-2.14ZM337.3,209.21c1.6,0,2.57-.7,2.57-2.88v-2.1c0-1.95-.66-2.8-2.18-2.8h-1.95v7.79h1.56Z"/>
    <path class="cls-2" d="M347.15,222.65v-22.97c0-1.25.9-2.14,2.14-2.14h4.4c4.28,0,6.39,2.38,6.39,6.74v13.79c0,4.36-2.1,6.74-6.39,6.74h-4.4c-1.25,0-2.14-.9-2.14-2.14ZM353.62,220.9c1.36,0,2.18-.7,2.18-2.65v-14.17c0-1.95-.82-2.65-2.18-2.65h-2.18v19.47h2.18Z"/>
    <path class="cls-2" d="M362.23,218.56c0-1.25.74-2.06,2.03-2.06,1.13,0,2.02.58,2.02,2.14,0,1.95.86,2.65,2.22,2.65s2.22-.7,2.22-2.73c0-2.26-.86-3.7-3.66-6.15-3.58-3.15-4.75-5.37-4.75-8.49,0-4.28,2.22-6.78,6.39-6.78s6.23,2.69,6.23,6.19c0,1.36-.74,2.06-2.02,2.06-1.36,0-2.02-.9-2.02-2.06,0-1.44-.78-2.3-2.14-2.3s-2.14.74-2.14,2.61c0,1.99.9,3.43,3.7,5.88,3.58,3.15,4.71,5.33,4.71,8.72,0,4.44-2.26,6.93-6.46,6.93s-6.31-2.49-6.31-6.62Z"/>
    <path class="cls-2" d="M383.41,218.48v-14.64c0-4.21,2.18-6.7,6.31-6.7s6.31,2.49,6.31,6.7v1.09c0,1.21-.82,2.02-2.02,2.02s-2.03-.82-2.03-2.02v-1.36c0-1.79-.86-2.53-2.14-2.53s-2.14.74-2.14,2.53v15.23c0,1.79.86,2.49,2.14,2.49s2.14-.7,2.14-2.49v-2.38c0-1.21.82-2.03,2.03-2.03s2.02.78,2.02,2.03v2.06c0,4.21-2.18,6.7-6.31,6.7s-6.31-2.49-6.31-6.7Z"/>
    <path class="cls-2" d="M397.7,222.92c0-.23.04-.47.08-.7l3.7-22.16c.31-1.79,1.56-2.92,3.35-2.92s3,1.13,3.31,2.92l3.7,22.16c.04.23.04.43.04.62,0,1.32-.7,2.18-1.95,2.18s-2.03-.82-2.22-2.06l-.51-3.58v.08h-5.1l-.51,3.58c-.19,1.36-.93,1.99-2.02,1.99-1.01,0-1.87-.66-1.87-2.1ZM406.7,215.76l-2.03-13.86h-.08l-1.99,13.86h4.09Z"/>
    <path class="cls-2" d="M414.22,223.12v-22.66c0-1.95,1.09-3.15,2.8-3.15,1.83,0,2.73,1.09,3.19,2.84l3.54,13.79h.08v-14.72c0-1.21.7-1.91,1.91-1.91s1.91.7,1.91,1.91v23.33c0,1.87-.93,2.49-2.26,2.49-1.48,0-2.22-.74-2.69-2.53l-4.6-17.68h-.08v18.3c0,1.21-.7,1.91-1.91,1.91s-1.91-.7-1.91-1.91Z"/>
    <path class="cls-2" d="M441.01,222.88v-9.7l-4.24-12.62c-.16-.43-.19-.82-.19-1.21,0-1.21.74-2.06,1.95-2.06,1.36,0,1.83.62,2.3,2.14l2.49,8.1h.08l2.49-8.25c.43-1.4.97-1.99,2.18-1.99,1.13,0,1.79.78,1.79,1.91,0,.31-.08.7-.19,1.09l-4.36,12.89v9.7c0,1.25-.9,2.14-2.14,2.14s-2.14-.9-2.14-2.14Z"/>
    <path class="cls-2" d="M451.41,218.33v-14.33c0-4.36,2.3-6.85,6.5-6.85s6.5,2.49,6.5,6.85v14.33c0,4.36-2.3,6.85-6.5,6.85s-6.5-2.49-6.5-6.85ZM460.13,218.6v-14.88c0-1.95-.86-2.69-2.22-2.69s-2.22.74-2.22,2.69v14.88c0,1.95.86,2.69,2.22,2.69s2.22-.74,2.22-2.69Z"/>
    <path class="cls-2" d="M467.14,218.33v-18.89c0-1.36.78-2.14,2.14-2.14s2.14.78,2.14,2.14v19.2c0,1.95.82,2.65,2.18,2.65s2.18-.7,2.18-2.65v-19.28c0-1.32.74-2.06,2.06-2.06s2.06.74,2.06,2.06v18.96c0,4.36-2.18,6.85-6.39,6.85s-6.39-2.49-6.39-6.85Z"/>
    <path class="cls-2" d="M489.18,222.88v-23.21c0-1.25.9-2.14,2.14-2.14h7.48c1.13,0,1.95.82,1.95,1.95s-.82,1.95-1.95,1.95h-5.33v7.59h3.82c1.13,0,1.95.82,1.95,1.95s-.82,1.95-1.95,1.95h-3.82v9.97c0,1.25-.9,2.14-2.14,2.14s-2.14-.9-2.14-2.14Z"/>
    <path class="cls-2" d="M502.58,222.88v-23.44c0-1.25.9-2.14,2.14-2.14s2.14.9,2.14,2.14v23.44c0,1.25-.9,2.14-2.14,2.14s-2.14-.9-2.14-2.14Z"/>
    <path class="cls-2" d="M510.06,223.12v-22.66c0-1.95,1.09-3.15,2.8-3.15,1.83,0,2.73,1.09,3.19,2.84l3.54,13.79h.08v-14.72c0-1.21.7-1.91,1.91-1.91s1.91.7,1.91,1.91v23.33c0,1.87-.93,2.49-2.26,2.49-1.48,0-2.22-.74-2.69-2.53l-4.6-17.68h-.08v18.3c0,1.21-.7,1.91-1.91,1.91s-1.91-.7-1.91-1.91Z"/>
    <path class="cls-2" d="M526.69,222.65v-22.97c0-1.25.9-2.14,2.14-2.14h4.4c4.28,0,6.39,2.38,6.39,6.74v13.79c0,4.36-2.1,6.74-6.39,6.74h-4.4c-1.25,0-2.14-.9-2.14-2.14ZM533.15,220.9c1.36,0,2.18-.7,2.18-2.65v-14.17c0-1.95-.82-2.65-2.18-2.65h-2.18v19.47h2.18Z"/>
    <path class="cls-2" d="M545.46,215.95c0-1.79.43-3.39,2.1-5.76,1.91-2.73,2.41-4.4,2.41-6.46,0-1.95-.78-2.69-2.14-2.69s-2.14.74-2.14,2.69v1.17c0,1.17-.86,2.02-2.03,2.02s-2.02-.86-2.02-2.02v-.9c0-4.36,2.1-6.85,6.27-6.85s6.35,2.49,6.35,6.85c0,2.38-.74,4.36-2.84,7.17-1.67,2.26-2.22,3.58-2.22,4.95,0,1.01-.9,1.75-1.87,1.75-1.05,0-1.87-.86-1.87-1.91ZM545.07,222.77c0-1.25,1.01-2.26,2.26-2.26s2.26,1.01,2.26,2.26-1.01,2.26-2.26,2.26-2.26-1.01-2.26-2.26Z"/>
  </g>
</svg>